<svg width="381" height="701" xmlns="http://www.w3.org/2000/svg" data-name="Layer 1">
 <title>the_world_is_mine</title>

 <g>
  <title>Layer 1</title>
  <path id="svg_6" fill="#57b894" d="m381.18428,180.39161l0,1.07987q-0.03686,4.06783 -0.23316,8.099a180.38684,180.38684 0 0 1 -360.17257,2.356q-0.36816,-5.72449 -0.36813,-11.5349a179.49331,179.49331 0 0 1 33.16915,-104.26859q2.59531,-3.68138 5.39929,-7.2277c1.28846,-1.64437 2.61377,-3.2519 3.95137,-4.84714a180.42083,180.42083 0 0 1 251.38818,-23.85526c2.172,1.75478 4.30721,3.5709 6.39326,5.42386q2.50341,2.22728 4.92077,4.55265a179.899,179.899 0 0 1 54.926,115.055q0.62588,7.5099 0.62584,15.16721z"/>
  <path id="svg_7" fill="#3f3d56" d="m58.97887,68.89531a1.00323,1.00323 0 0 1 0.24542,0.14725c0.96943,0.79763 -0.24542,2.33153 -0.09817,3.59547c0.1718,1.6198 2.33153,1.97567 3.96361,2.13519c1.63207,0.1718 3.69363,1.48482 2.92055,2.93282c-4.09859,1.41119 -8.24626,0.02454 -12.43075,-1.583a179.49358,179.49358 0 0 0 -33.16911,104.26855q0,5.81655 0.36814,11.53494a4.66235,4.66235 0 0 0 1.11668,0.60129c1.22712,0.46631 2.65058,0.38041 3.77954,1.04306c0.8958,0.52766 1.49709,1.46027 2.39288,1.95112c2.56469,1.39892 6.12334,-1.28848 8.51623,0.38041a22.00377,22.00377 0 0 1 1.75479,1.7916c2.20882,1.91431 5.8411,0.62583 8.39351,2.06156c1.64434,0.92034 2.49106,2.761 3.37459,4.42991c2.19654,4.17222 5.7552,8.2708 10.45507,8.60213a28.15488,28.15488 0 0 1 4.44219,0.14725c1.448,0.33132 2.87146,1.59526 2.63831,3.05553c-0.40495,2.5156 0.83444,5.26436 0.50312,7.78c-0.60129,4.6017 -7.11731,6.61418 -7.66951,11.21589a27.71079,27.71079 0 0 1 -0.1718,3.031c-0.29451,1.20258 -1.20258,2.18428 -1.52163,3.38686c-0.61356,2.27018 1.01851,4.54035 2.79784,6.062c1.79159,1.5339 3.92679,2.8592 4.90848,4.99439c1.03079,2.27017 0.52767,4.90849 0.859,7.375c0.73627,5.38707 5.38706,9.37521 10.17284,11.95217a10.62167,10.62167 0 0 1 3.97587,2.896c1.22713,1.77932 1.10441,4.12313 1.52164,6.246c1.00624,5.19072 5.37479,9.47338 5.4975,14.76227c0.0859,3.76727 -2.00021,7.17867 -3.25187,10.72505a24.75173,24.75173 0 0 0 -1.11668,11.584a181.25111,181.25111 0 0 0 22.24772,16.13666a6.48232,6.48232 0 0 0 0.92034,-2.06157a4.07734,4.07734 0 0 0 -1.902,-4.2213a10.08769,10.08769 0 0 0 3.52184,-2.2579a3.45474,3.45474 0 0 0 0.6381,-3.90225c2.15974,0.27 4.72442,0.40495 6.14789,-1.25167c1.14122,-1.32529 1.06759,-3.31322 0.61356,-4.99438c-0.454,-1.69343 -1.21485,-3.3255 -1.22713,-5.08029a91.38214,91.38214 0 0 0 14.99543,-0.50312a9.73448,9.73448 0 0 0 -4.56489,-5.71838c2.25791,-0.38041 4.3072,-3.08008 5.01893,-5.25209a13.37761,13.37761 0 0 0 0.09817,-6.786a3.60994,3.60994 0 0 1 -0.07363,-1.76706a3.47667,3.47667 0 0 1 1.7916,-1.73024q5.59568,-3.22119 11.19135,-6.43012a6.74722,6.74722 0 0 0 1.7916,-1.313c1.16577,-1.38665 0.994,-3.46048 0.39268,-5.16618s-1.55845,-3.31323 -1.7916,-5.10483c-0.68719,-5.36252 5.05574,-9.21568 6.9946,-14.27143a21.434,21.434 0 0 0 1.05532,-6.24605c0.15953,-2.28244 0.1718,-4.92076 -1.57071,-6.381c-1.68116,-1.41119 -4.29493,-1.09214 -6.04972,-2.40516c-1.60753,-1.20258 -2.15973,-3.52184 -3.91451,-4.49127c-1.59526,-0.88353 -3.5832,-0.31905 -5.36253,-0.73627c-3.11689,-0.724 -5.08028,-4.31947 -8.2708,-4.65079c-1.7916,-0.19634 -3.82862,0.68719 -5.30117,-0.35587c-1.30075,-0.93261 -1.34983,-2.78556 -1.59526,-4.35628a12.16905,12.16905 0 0 0 -9.817,-9.84152c-1.85295,-0.29451 -3.86543,-0.18407 -5.44842,-1.20258c-1.59526,-1.03078 -2.31926,-2.95736 -3.5832,-4.3931c-2.01248,-2.29471 -5.203,-3.11688 -8.1849,-3.81634q-6.07425,-1.41733 -12.13624,-2.84693c-2.14746,-0.51539 -4.92076,-0.78536 -6.08652,1.10441a8.30191,8.30191 0 0 0 -0.71173,2.27018a7.04015,7.04015 0 0 1 -6.60192,4.95757a7.80066,7.80066 0 0 0 -4.58944,-3.55865a28.95665,28.95665 0 0 1 -3.73045,-0.88353a5.22652,5.22652 0 0 1 -2.2579,-7.25229a6.51144,6.51144 0 0 0 -1.11668,-7.81677c-2.06157,-1.853 -5.04347,-2.307 -7.81677,-2.12292c-0.724,-1.583 0.49085,-3.36231 1.7916,-4.51581c1.313,-1.14122 2.896,-2.27017 3.17825,-3.98814c0.454,-2.69967 -2.99418,-4.749 -5.60795,-3.95134c-2.61377,0.8099 -4.28266,3.35005 -5.38707,5.85337a17.65275,17.65275 0 0 1 -2.172,4.15995a4.26415,4.26415 0 0 1 -4.12313,1.69343c-2.15974,-0.55221 -2.98191,-3.11689 -3.46049,-5.27663a34.40658,34.40658 0 0 1 -1.15349,-8.84755a11.54962,11.54962 0 0 1 3.33777,-8.04992c3.57093,-3.28868 9.06843,-2.96963 13.891,-2.442a3.53822,3.53822 0 0 1 0.36814,-4.66306a5.30186,5.30186 0 0 1 4.81032,-1.178a6.59987,6.59987 0 0 1 3.71818,2.22109c1.37437,1.66889 1.767,3.93906 2.79783,5.82883c1.04306,1.902 3.37459,3.52184 5.27663,2.50333c1.65661,-0.88353 1.91431,-3.166 1.50936,-4.99439c-0.41722,-1.81614 -1.28848,-3.59547 -1.14123,-5.46069c0.28224,-3.54638 3.97588,-5.69385 7.22775,-7.15412s6.97006,-3.43594 7.48545,-6.97a6.513,6.513 0 0 1 0.39268,-2.01248a3.93418,3.93418 0 0 1 1.46027,-1.37438c9.48565,-6.27059 19.1431,-12.62709 29.99086,-16.05076c0.56448,-0.18406 0.62583,0.01228 1.20258,-0.12271c0.8099,-0.4663 0.27,-1.75478 -0.50312,-2.27017s-1.80387,-0.92034 -2.00021,-1.82842c-0.135,-0.66264 0.2577,-1.32529 0.35587,-2.0002a2.49731,2.49731 0 0 0 -3.27642,-2.52788c-0.87126,-1.15349 0.84672,-2.49105 2.24563,-2.88373a61.333,61.333 0 0 1 12.82343,-2.08611a2.28347,2.28347 0 0 1 1.46027,0.24543a1.73533,1.73533 0 0 1 0.11044,2.38061a13.4402,13.4402 0 0 1 -1.95112,1.77933a5.36,5.36 0 0 0 -1.39892,5.38706c2.27018,1.1535 4.72442,2.34381 7.24,1.93886c2.50333,-0.40495 4.72442,-3.22733 3.54638,-5.473c-1.09213,-2.09838 -4.39309,-2.57695 -4.95757,-4.87167c-0.66264,-2.6874 3.14143,-5.08029 2.28245,-7.70633c-0.36814,-1.15349 -1.52163,-1.84068 -2.40516,-2.66285a7.26026,7.26026 0 0 1 -1.583,-8.02538a9.14382,9.14382 0 0 1 -8.00083,-2.50333c-1.91431,-1.92658 -3.43594,-4.98211 -6.16016,-4.88394c-2.49105,0.07362 -4.63852,2.9819 -6.97005,2.09838c-0.57675,-0.22089 -1.178,-0.66265 -1.73024,-0.40495a1.43018,1.43018 0 0 0 -0.65037,1.06759c-0.589,2.83465 0.42949,6.062 -1.11669,8.51623c-1.68115,2.66285 -5.57113,3.031 -7.60815,5.43615c-1.10441,1.30075 -1.5339,3.05553 -2.55242,4.42991s-3.166,2.2579 -4.39309,1.05532a6.04709,6.04709 0 0 0 -1.64435,-7.36273a15.81167,15.81167 0 0 0 -3.63228,-1.767a21.55681,21.55681 0 0 1 -4.06177,-2.25791a4.025,4.025 0 0 1 -1.48482,-1.59526a3.668,3.668 0 0 1 0.09817,-2.52787a10.33172,10.33172 0 0 1 8.20945,-6.79825c1.6198,-0.22089 3.50957,-0.14726 4.58943,-1.38665c0.56448,-0.65038 0.859,-1.64435 1.69343,-1.902a2.46881,2.46881 0 0 1 1.55845,0.18407c2.02475,0.71173 4.03723,1.42346 6.062,2.13519a4.15248,4.15248 0 0 0 2.15973,0.35586a1.45274,1.45274 0 0 0 1.26394,-1.5339c-0.19634,-1.00624 -1.74251,-1.48482 -1.59526,-2.50333a1.59148,1.59148 0 0 1 0.50312,-0.859a21.68329,21.68329 0 0 1 17.192,-6.786c0.76082,1.26394 -0.44176,2.74876 -1.46028,3.81635c-1.00624,1.07987 -1.81614,2.99418 -0.589,3.81635a3.23284,3.23284 0 0 0 1.60753,0.36814a14.02118,14.02118 0 0 1 4.29492,1.30075c2.09838,0.90807 4.15995,1.91431 6.17243,2.99418a7.78183,7.78183 0 0 1 0.14725,-3.97588a2.7,2.7 0 0 1 3.19052,-1.73024c1.20258,0.46631 1.81614,2.06156 3.10462,2.20882c1.7057,0.19634 2.38061,-2.33153 1.66888,-3.90225s-2.13519,-2.87146 -2.24563,-4.60171c-0.0859,-1.15349 0.35586,-2.58922 -0.56448,-3.28868a2.44116,2.44116 0 0 0 -1.09214,-0.39268q-11.55948,-2.11679 -23.13124,-4.24584c-1.37438,-0.2577 -3.35005,-0.06136 -3.4114,1.32529c-0.03682,0.78536 0.66264,1.55844 0.35586,2.27017c-0.33132,0.76082 -1.41119,0.69946 -2.19655,0.96943a2.98239,2.98239 0 0 0 -1.718,3.1537a8.59619,8.59619 0 0 0 1.448,3.54638c-1.50936,-0.62583 -3.77954,-0.73627 -5.2889,-1.37437a20.35615,20.35615 0 0 0 -1.32529,-5.09256a1.79748,1.79748 0 0 0 -2.3438,-1.448c-1.98794,0.30678 -3.97588,0.60129 -5.96382,0.90807a2.30681,2.30681 0 0 0 -1.3621,0.52766c-0.77309,0.82217 -0.01227,2.13519 -0.03681,3.26415a3.05893,3.05893 0 0 1 -2.36835,2.63831a8.92727,8.92727 0 0 1 -3.77954,-0.04909c-2.78556,-0.42949 -5.55886,-0.859 -8.34443,-1.28848a13.66913,13.66913 0 0 0 6.30741,-4.22129c1.10441,-1.30075 1.69343,-3.73046 0.09817,-4.344a3.80718,3.80718 0 0 0 -1.448,-0.11044c-3.77954,0.02454 -6.76144,-3.12916 -10.29556,-4.46672a10.12021,10.12021 0 0 0 -3.47275,-0.6381l-3.95131,4.84703z"/>
  <path id="svg_8" fill="#3f3d56" d="m380.95115,189.57048a4.43089,4.43089 0 0 1 -3.755,1.77933c-3.84089,-0.33133 -5.46069,-5.86565 -9.26477,-6.49148a1.48259,1.48259 0 0 0 -1.00624,0.09817c-0.56448,0.30678 -0.66265,1.0676 -0.69946,1.7057c-0.15953,3.166 -0.29451,6.45466 0.94488,9.37521c1.80387,4.27039 6.47921,7.85358 5.49751,12.38166c-5.27662,-2.442 -8.02538,-8.369 -9.26477,-14.05054c-1.25167,-5.68158 -1.448,-11.64539 -3.68137,-17.02019c-1.7057,2.172 -5.26435,0.38041 -6.81052,-1.902c-1.47255,-2.15974 -2.38062,-4.66307 -3.80408,-6.85962c-1.42346,-2.18427 -3.60774,-4.14767 -6.20924,-4.27038c-2.73648,-0.12271 -5.1171,1.75478 -7.2032,3.53411a16.67021,16.67021 0 0 0 -4.479,4.98212c-1.46027,2.94509 -1.07987,6.40557 -1.15349,9.682c-0.07363,3.53411 -0.82218,7.27683 -3.23961,9.87833c-2.41743,2.58923 -6.87188,3.4973 -9.53473,1.15349a10.75637,10.75637 0 0 1 -2.66286,-4.798a233.47929,233.47929 0 0 1 -7.21548,-25.745c-0.44176,1.98794 -2.19654,4.55262 -3.86543,3.38686a3.447,3.447 0 0 1 -0.88353,-1.1535c-3.11689,-5.26435 -8.87209,-8.43033 -14.70092,-10.33237c-5.81656,-1.88976 -11.93989,-2.77329 -17.6951,-4.8594a45.24209,45.24209 0 0 1 -9.19114,-4.57716a7.23748,7.23748 0 0 0 -0.44176,7.38727a5.91761,5.91761 0 0 0 6.651,2.78557c1.2762,-0.41722 2.35607,-1.30075 3.62,-1.74252c1.26393,-0.42949 2.96963,-0.22088 3.52184,1.00624c0.53993,1.16577 -0.27,2.577 0.135,3.80408c0.60129,1.853 3.4114,2.00021 4.3931,3.69364a3.4191,3.4191 0 0 1 -0.92034,3.95133a16.53766,16.53766 0 0 1 -3.70591,2.28245c-4.12313,2.29472 -7.05595,6.20924 -10.66369,9.2525c-3.60774,3.05553 -8.7003,5.27662 -12.99522,3.3255c1.01851,-5.19073 -5.15392,-8.99481 -6.29514,-14.161c-0.38041,-1.7057 -0.18407,-3.50957 -0.71173,-5.16618c-0.77309,-2.40516 -2.90828,-4.0495 -4.65079,-5.86565a23.0562,23.0562 0 0 1 -6.31968,-16.75021c0.09817,-2.13519 0.49085,-4.3072 0,-6.3933c-0.47858,-2.07384 -2.20882,-4.08632 -4.344,-4.00042c-4.87168,0.22088 -11.01956,0.589 -13.572,-3.57093c-0.92034,-1.48481 -1.313,-3.65682 0.01227,-4.798c0.93261,-0.79763 2.307,-0.724 3.52184,-0.60129c3.66909,0.35586 7.32592,0.724 10.995,1.07986c2.56469,0.24543 5.338,0.454 7.5468,-0.88352s3.166,-4.90849 1.11668,-6.49148c-1.48481,-1.15349 -4.15994,-1.09214 -4.6017,-2.92055c-0.35587,-1.5339 1.33756,-3.26414 0.41722,-4.55262c-0.65038,-0.90807 -2.12292,-0.66265 -3.01872,0.02454a19.72114,19.72114 0 0 1 -2.54014,2.22109c-1.75479,0.90807 -3.8409,0.03681 -5.73066,-0.5522s-4.41764,-0.63811 -5.32571,1.11668c-1.03079,1.95112 0.8958,4.52808 -0.11044,6.49147c-1.34984,2.58923 -5.89019,1.11668 -7.78,3.35005c-2.15973,2.55241 1.47255,6.381 0.74855,9.64517a6.01285,6.01285 0 0 1 -5.927,-0.33132a5.738,5.738 0 0 1 -2.47879,-5.35025c0.1718,-1.47255 0.94489,-2.98191 0.42949,-4.36856a5.09982,5.09982 0 0 0 -2.58922,-2.36834q-5.338,-2.9635 -10.676,-5.90246c-0.994,1.84069 0.25769,4.11086 1.82841,5.49751c1.55844,1.37438 3.52184,2.41743 4.55262,4.23357a5.56428,5.56428 0 0 1 -2.08611,7.33819a1.29446,1.29446 0 0 1 -1.06759,0.18407a1.47935,1.47935 0 0 1 -0.68719,-0.92034c-1.8775,-4.82259 -4.71215,-9.57156 -9.228,-12.08716c-4.52808,-2.52787 -11.01955,-2.0002 -13.98919,2.23337c-0.69946,1.00624 -1.178,2.15973 -1.7916,3.22733c-3.25187,5.657 -10.24646,8.33216 -16.77475,8.16036a3.233,3.233 0 0 1 -1.82842,-0.42949c-1.05532,-0.724 -1.00624,-2.27018 -0.84671,-3.54639c0.23315,-1.80387 0.454,-3.59546 0.68719,-5.39933a4.32425,4.32425 0 0 1 1.19031,-2.95737c1.21485,-0.95715 2.95736,-0.35586 4.50353,-0.3804a5.673,5.673 0 0 0 5.16619,-3.98815a6.41078,6.41078 0 0 0 -1.7916,-6.381c-0.69946,-0.66264 -1.64434,-1.49708 -1.27621,-2.39288a1.98853,1.98853 0 0 1 1.38665,-0.93262c2.761,-0.79763 5.69385,-1.00624 8.40579,-1.96339c2.72421,-0.94488 5.36252,-2.88374 6.01289,-5.69385c0.19634,-0.859 0.28224,-1.902 1.05533,-2.33153a3.4176,3.4176 0 0 1 1.22712,-0.24542a5.97248,5.97248 0 0 0 5.1171,-6.22151c1.30075,-0.90807 3.12916,-0.23315 4.3931,0.73627c1.25166,0.96943 2.36834,2.24564 3.90224,2.66286c2.8592,0.78535 5.62022,-1.75479 8.58986,-1.76706c1.25166,0 2.54014,0.44177 3.70591,0.01227c1.1903,-0.42949 1.902,-1.60753 2.8101,-2.47878c0.92035,-0.88353 2.5156,-1.41119 3.36232,-0.46631c-0.24543,-1.77933 -0.47858,-3.54638 -0.724,-5.31344a10.44545,10.44545 0 0 0 8.504,-1.54617c-3.09235,-1.04306 -6.17242,-2.08611 -9.26477,-3.12916a1.99923,1.99923 0 0 1 -0.87126,-0.46631c-0.67491,-0.724 0,-1.85295 0.53994,-2.67513c1.313,-1.97566 1.5339,-5.22753 -0.62583,-6.20923c-1.47255,-0.67492 -3.15371,0.135 -4.5649,0.92034c-2.2579,1.25166 -4.51581,2.5156 -6.77371,3.76726c-0.20861,1.28848 1.3621,2.02475 2.33153,2.88374a3.91016,3.91016 0 0 1 -2.55241,6.83507a4.89841,4.89841 0 0 1 0.87125,4.1354c-1.50936,0.11044 -3.031,0.22088 -4.55262,0.33132a1.955,1.955 0 0 1 -1.47254,-0.29451c-0.49085,-0.42949 -0.41723,-1.1903 -0.53994,-1.82841a3.94969,3.94969 0 0 0 -3.33777,-2.90828a11.52267,11.52267 0 0 0 -4.65079,0.4295a2.83379,2.83379 0 0 1 -2.01248,-0.04909a2.00758,2.00758 0 0 1 -0.78536,-1.00624a5.13091,5.13091 0 0 1 1.03078,-4.933a28.23766,28.23766 0 0 1 3.87771,-3.57092a22.60562,22.60562 0 0 0 6.7369,-10.43054c2.50333,-1.05533 5.09255,-2.47879 7.60815,-3.53411a30.39287,30.39287 0 0 1 6.31968,-2.12292a29.86432,29.86432 0 0 1 6.197,-0.29451c2.82238,0.04908 5.657,0.09817 8.47941,0.15952a20.40694,20.40694 0 0 1 7.42409,1.0676c2.31926,0.95716 4.36855,3.031 4.52808,5.53432a1.69922,1.69922 0 0 1 -0.55221,1.55844a1.98844,1.98844 0 0 1 -1.06759,0.24543c-2.34381,0.07363 -3.33778,0.66265 -5.68158,0.74854c1.48482,1.583 3.15371,3.25188 5.31344,3.53411c3.80408,0.49085 6.54056,-3.44821 8.29534,-6.87188a3.34867,3.34867 0 0 0 3.4973,3.10462a7.05261,7.05261 0 0 0 2.63831,-1.03078a51.89888,51.89888 0 0 1 24.6038,-6.35649a2.6493,2.6493 0 0 1 2.02475,-2.92055c1.75478,-0.3436 3.3255,1.16576 4.17221,2.73648c0.83445,1.57071 1.36211,3.38685 2.71194,4.56489c1.33757,1.178 3.92679,1.11668 4.45446,-0.57675c0.51539,-1.63207 -1.19031,-3.031 -2.6015,-4.00041c-1.42346,-0.95716 -2.90828,-2.73649 -1.95113,-4.16c7.21548,-1.60753 14.49231,-3.20278 21.89186,-3.52184a9.31582,9.31582 0 0 0 3.68137,-0.6381a2.86149,2.86149 0 0 0 1.718,-3.031a8.36665,8.36665 0 0 1 -8.71257,-3.28869c7.59589,-0.62583 15.54764,-1.178 22.849,0.52766l6.39331,5.42388c-1.21485,1.26394 -2.83466,2.45425 -1.95113,3.71818a2.72023,2.72023 0 0 0 2.24564,0.77309c1.54617,0.02454 3.09234,0.06136 4.62625,0.06136a179.89938,179.89938 0 0 1 54.926,115.055c-2.577,-0.09817 -4.9453,3.166 -4.614,6.0129c0.39267,3.301 2.77329,5.95154 4.479,8.79846a13.40829,13.40829 0 0 1 0.76082,1.43573l-0.23312,8.09882z"/>
  <circle id="svg_9" fill="#2f2e41" r="30.9995" cy="326.94473" cx="142.45396"/>
  <path id="svg_10" fill="#ffb9b9" d="m127.65597,342.60593s-10.09708,22.35783 -12.982,23.079s23.80027,13.70319 23.80027,13.70319s5.04854,-27.40637 7.2122,-28.84881s-18.03047,-7.93338 -18.03047,-7.93338z"/>
  <polygon id="svg_11" fill="#ffb9b9" points="67.79502940177917,525.7957153320312 49.043015241622925,578.4447021484375 69.23701548576355,586.3787231445312 103.85603404045105,517.8626708984375 67.79502940177917,525.7957153320312 "/>
  <path id="svg_12" fill="#ffb9b9" d="m133.42574,527.23835s37.50346,52.64908 39.66712,53.3703s17.30929,-12.26074 17.30929,-12.26074s-18.75173,-45.43689 -24.5215,-47.60055s-32.45491,6.49099 -32.45491,6.49099z"/>
  <path id="svg_13" fill="#2f2e41" d="m46.15807,569.06909l-29.57,77.17058s2.16366,4.32732 0,5.04854s-7.21221,12.26075 -7.21221,12.982s-5.04854,1.44244 -5.04854,3.6061s-4.32732,19.473 -4.32732,19.473s7.93342,17.30929 12.982,12.26075s7.21215,-15.14567 7.21215,-15.14567l7.2122,-18.75173s-0.72122,-10.09709 4.32732,-11.53953s7.93343,-19.47295 7.93343,-19.47295s7.93342,-7.93342 9.37586,-10.09708s26.68516,-40.38834 24.5215,-41.10956s-27.40639,-14.42445 -27.40639,-14.42445z"/>
  <path id="svg_14" fill="#2f2e41" d="m168.76554,579.16621l21.63661,-14.4244s37.50346,68.51593 37.50346,69.95837s-1.44244,5.76977 0,7.21221s13.70318,24.52149 21.63661,26.68515s9.37586,10.81831 2.88488,12.26075s-15.14563,5.04854 -17.30929,0a79.371,79.371 0 0 0 -4.32732,-8.65465s-7.21221,2.16366 -7.93343,0.72122a66.371,66.371 0 0 1 -2.16366,-6.491s-5.76976,-10.09709 -5.76976,-13.70319s-3.6061,-4.32732 -3.6061,-4.32732s-7.93343,-18.75173 -12.982,-21.63661s-9.37586,-17.30929 -9.37586,-17.30929l-20.19414,-30.29124z"/>
  <circle id="svg_15" fill="#ffb9b9" r="20.91539" cy="338.27861" cx="142.8016"/>
  <path id="svg_16" fill="#2f2e41" d="m80.77665,465.21339s-30.95529,82.23385 -26.628,82.23385s124.04328,2.6049 127.64938,-3.16486s-31.063,-63.20214 -32.50547,-63.92336s-68.51591,-15.14563 -68.51591,-15.14563z"/>
  <path id="svg_17" fill="#ffb9b9" d="m49.76415,293.56295l-21.63661,-33.17614s5.35057,-34.8021 -1.86163,-28.31112s-9.49458,32.70356 -9.49458,32.70356l25.0594,38.15956l7.93342,-9.37586z"/>
  <path id="svg_18" fill="#ffb9b9" d="m245.93615,354.14546l19.47295,-1.44244s23.07905,-24.5215 24.52149,-16.58807s-18.75173,25.24271 -18.75173,25.24271l-26.68515,2.88488l1.44244,-10.09708z"/>
  <circle id="svg_21" fill="#2f2e41" r="12.82738" cy="294.318" cx="131.60989"/>
  <path id="svg_22" fill="#2f2e41" d="m114.50672,287.36984a12.82871,12.82871 0 0 1 11.4912,-12.758a12.97109,12.97109 0 0 0 -1.33619,-0.06935a12.82738,12.82738 0 1 0 0,25.65476a12.96827,12.96827 0 0 0 1.33619,-0.06936a12.8287,12.8287 0 0 1 -11.4912,-12.75805z"/>
  <ellipse id="svg_23" fill="#2f2e41" ry="12.82738" rx="21.37897" cy="320.37202" cx="146.06007"/>
  <path id="svg_19" fill="#66806a" d="m103.8557,361.35766l0,-7.2122s-18.75173,-12.26075 -18.03055,-14.42437s-1.44244,-3.6061 -1.44244,-3.6061s-2.16366,-2.88488 -2.16366,-3.6061s-2.88488,-1.44244 -2.88488,-1.44244l-18.03051,-20.9154s-10.09709,-20.19417 -12.26075,-19.473s-13.70318,5.04855 -12.26074,7.93343s41.83078,64.90983 41.83078,64.90983s2.16366,13.70319 5.76976,13.70319s19.47299,-15.86684 19.47299,-15.86684z"/>
  <path id="svg_20" fill="#66806a" d="m152.17747,370.01231s15.86685,-0.72123 16.58807,0s10.8183,0 10.8183,0s27.40638,-6.491 29.57,-8.65465s38.22468,-11.53953 39.66712,-7.2122s5.04854,12.982 1.44244,14.4244s-100.97085,25.96394 -100.97085,25.96394l2.88492,-24.52149z"/>
  <path id="svg_24" fill="#66806a" d="m121.5256,353.78485s-6.491,5.04854 -7.93342,5.76976s-10.09709,-6.491 -11.53953,-6.491s-20.19417,21.63661 -20.19417,21.63661s3.48485,4.014 0,24.52149c-1.30692,7.69094 -3.89983,40.5723 -3.89983,44.89962s-14.13068,14.96167 -1.14871,24.33754s75.00692,19.47295 75.72814,13.70318s-7.21221,-20.91539 -3.6061,-28.12759s3.6061,-33.89736 3.6061,-33.89736l4.32732,-28.12759l3.6061,-22.35783s-16.94868,-4.68794 -18.39112,-4.68794s-7.93342,10.09711 -20.55478,-11.17889z"/>
 </g>
</svg>